<mxfile host="app.diagrams.net" modified="2024-03-28T09:13:18.199Z" agent="Mozilla/5.0 (Windows NT 10.0; Win64; x64) AppleWebKit/537.36 (KHTML, like Gecko) Chrome/123.0.0.0 Safari/537.36" version="24.0.7" etag="KGYz5Sv_G0sRPvO63KF7" type="github">
  <diagram name="Seite-1" id="gvPVXYEB19AznNQh1cUi">
    <mxGraphModel>
      <root>
        <mxCell id="0" />
        <mxCell id="1" parent="0" />
      </root>
    </mxGraphModel>
  </diagram>
</mxfile>
